<svg xmlns="http://www.w3.org/2000/svg" viewBox="0 0 379 108.49"><defs><style>.a{fill:#7332d6;}</style></defs><title>pet_finder_logo_tm</title><circle class="a" cx="185.25" cy="24.52" r="6.69"/><path class="a" d="M370.18,30.39c-6.19,0-11,4.34-13.77,8.58q0.11-1.6.11-2.78a6,6,0,0,0-11.92.11c0,3.59.78,9.14,0.78,14.91,0,1,0,1.89-.07,2.78-5.55,5.62-12.28,10-21,10-6.58,0-9.57-2.49-10.85-6.08,15.34-.11,23.13-6.19,23.13-15.41,0-7.12-6.23-12.13-15.05-12.13-11.46,0-21,8.65-21,22.35A22.44,22.44,0,0,0,301.93,61a6.4,6.4,0,0,1-5.48,2.67c-4.27,0-5.87-3.42-5.87-21.81,0-8.86.78-18.61,0.78-27.11a5.94,5.94,0,0,0-11.88-.14c0,4.8.36,10.07,0.57,18.18-2.14-1.28-5.2-2.35-10.11-2.35-15,0-23,11.71-23,21.92A23,23,0,0,0,248.44,61a9.41,9.41,0,0,1-6.23,2.6c-2.49,0-5.2-2.17-5.2-10.28,0-1.81.28-9,.28-11.71,0-7-5.09-11.24-12.6-11.24-7.15,0-11.92,4-14.8,8.61,0.07-1.07.14-2,.14-2.81a6,6,0,0,0-11.92.11c0,3.59.78,9.14,0.78,14.91,0,1,0,1.92-.07,2.85-0.53,4.52-7.19,9.54-13,9.54-7.51,0-10.35-4.31-10.35-11.28,0-3.24,2.46-5.55,2.46-9.07a7.6,7.6,0,1,0-15.19.32c0,3.34,2.46,5.62,2.46,8.72,0,7-3.1,11.35-10.39,11.35-5.73,0-13.27-5.44-14-10.57V52.95c8.08-7.69,22.31-22.92,22.31-36,0-10-5.44-16.9-15.09-16.9-12,0-18.18,8.79-18.18,17.93,0,3.81.53,15.87,0.53,32.84v2.46c-2.81,4.27-6.8,10.25-12.42,10.25-3,0-4.87-2.06-5.73-5.44-0.93-3.56-.71-8.4-0.71-13.45,0-1.81,0-3.67.07-5.52,3.77,0.07,7,.14,9.07.14a4.5,4.5,0,0,0,4.59-4.41c0-2.6-1.81-4.45-4.7-4.45-2.63,0-5.69.07-8.61,0.11,0.21-4.48.43-8.75,0.43-12.42a6,6,0,1,0-11.92.11c0,1.14.32,6.62,0.53,12.24-1.25,0-2.35-.07-3.52-0.07a4.43,4.43,0,0,0-4.63,4.48,4.53,4.53,0,0,0,4.63,4.38c1,0,2.1-.07,3.77-0.11v0.85c0,2-.32,6.69-0.57,10.92-6.08,7-13.56,13.06-23.88,13.06-6.58,0-9.57-2.49-10.85-6.08,15.34-.11,23.13-6.19,23.13-15.41,0-7.12-6.23-12.13-15.05-12.13-11.46,0-21,8.65-21,22.35a26,26,0,0,0,.68,6A45.92,45.92,0,0,1,40.1,63.84,21.92,21.92,0,0,0,44.59,50.6c0-14.27-9.93-20.25-20.14-20.25a20.75,20.75,0,0,0-12.74,4.2,6,6,0,0,0-5.87-4.2A5.88,5.88,0,0,0,0,36.3c0,3.59.78,13.38,0.78,26.37S0,84.26,0,89.35c0,3.49,1.85,5.94,5.09,5.94,3,0,6.87-2.38,6.87-5.87,0-1.28-.53-9.39-0.75-19.61,4.95,2.17,10.53,2.63,18,2.63,12.28,0,22.35-4.52,27.61-7.37,3.7,4.8,10.11,7.37,19,7.37,11.1,0,19.78-6.44,24.87-11.24,1.21,7.58,6.48,11.35,15.3,11.35,6.62,0,11.28-4.13,14.3-7.79-0.25,11.78-.68,21.42-0.68,26.58,0,14.13,7.86,17.15,13.74,17.15,11.74,0,17.93-9.07,17.93-19.39a27.76,27.76,0,0,0-5.84-16.69c5.3-.14,10.68-1.28,14.95-7.4,4.23,6.62,11.24,7.44,15.3,7.44,5,0,9-2.14,12.45-5.37a6,6,0,0,0,11.92-.39c0-1.1-.39-5.94-0.64-10.43,0-6.12,6.44-16.83,12.13-16.83,2.85,0,4.7,2.46,4.7,6,0,2.7-.32,8-0.32,11.49,0,8.29,2.1,15.59,13.81,15.59a19.8,19.8,0,0,0,13-5.16,20.87,20.87,0,0,0,14.38,5.2,21.21,21.21,0,0,0,15.66-6.76c1.39,3.45,4.59,6.69,11.6,6.69a15.17,15.17,0,0,0,11.88-5.27c3.84,3.45,9.57,5.27,17.08,5.27,8.86,0,16.19-4.09,21.39-8.22,0,0.78-.07,1.57-0.07,2.35a6,6,0,0,0,11.92.07c0-1.1-.43-6-0.64-10.5,0.07-7.15,7.4-15.87,11-15.87,2.38,0,1.85,3.27,6.33,3.27A5.75,5.75,0,0,0,379,37.79C378.93,34.91,376.94,30.39,370.18,30.39Zm-228.62-12c0-5.12,3-8.9,6.23-8.9,3.59,0,5.05,3.59,5.05,7.4C152.83,26.26,146,35.19,141,41,141.2,32.38,141.55,20.25,141.55,18.4ZM20.75,63.55a13.26,13.26,0,0,1-9.57-3.81c0-2.6.07-5.05,0.14-7.33V52.09c0-5.69,4.23-13.13,12-13.13C28,39,32.7,42.7,32.7,50.74,32.7,59.85,26.44,63.55,20.75,63.55Zm53.2-25.62A5.09,5.09,0,0,1,79.32,43c0,4.66-3,7.65-14.23,7.83C65.08,40.81,70.56,37.93,73.94,37.93Zm72.63,61.42c-3.2,0-4.95-3-4.95-7.79,0-.5-0.21-11.64-0.43-22.35,3.34,4.23,10.32,11.53,10.32,21.24C151.48,96.93,148.92,99.35,146.57,99.35ZM280.22,50.88c0,5.66-4.27,13.09-12,13.09-4.73,0-9.43-3.74-9.43-11.78,0-9.07,6.26-13.2,12-13.2a12.08,12.08,0,0,1,9.43,4.06v7.83Zm41.13-13a5.18,5.18,0,0,1,5.37,5.12c0,4.48-3,7.58-14.23,7.76C312.53,40.81,318,37.93,321.35,37.93Z"/><path class="a" d="M369.21,68.93a3.51,3.51,0,0,1-3.63,3.7,3.47,3.47,0,0,1-3.63-3.7A3.63,3.63,0,1,1,369.21,68.93Zm-6.51,0a2.8,2.8,0,0,0,2.88,3,2.77,2.77,0,0,0,2.88-3,2.82,2.82,0,0,0-2.88-3,2.77,2.77,0,0,0-2.88,3h0Zm3.56,0.46a1.21,1.21,0,0,0-.36-2.38h-1.74v3.77h0.71V69.42h0.64l1.07,1.32h0.78V70.6l-1.1-1.25h0Zm-0.36-1.74a0.61,0.61,0,1,1,0,1.21h-1V67.61h1.07Z"/></svg>