<?xml version="1.0" encoding="UTF-8" standalone="no"?>
<svg
   xmlns:dc="http://purl.org/dc/elements/1.1/"
   xmlns:cc="http://creativecommons.org/ns#"
   xmlns:rdf="http://www.w3.org/1999/02/22-rdf-syntax-ns#"
   xmlns:svg="http://www.w3.org/2000/svg"
   xmlns="http://www.w3.org/2000/svg"
   xmlns:sodipodi="http://sodipodi.sourceforge.net/DTD/sodipodi-0.dtd"
   xmlns:inkscape="http://www.inkscape.org/namespaces/inkscape"
   viewBox="0 0 1064.0998 457.72683"
   height="457.72684"
   width="1064.0999"
   xml:space="preserve"
   id="svg149"
   version="1.1"
   sodipodi:docname="GALT-CENTEX_logo.svg"
   inkscape:version="0.92.2 (5c3e80d, 2017-08-06)"
   inkscape:export-filename="/home/ellie/Pictures/GALT-CENTEX_logo.png"
   inkscape:export-xdpi="96"
   inkscape:export-ydpi="96"><sodipodi:namedview
     pagecolor="#ffffff"
     bordercolor="#666666"
     borderopacity="1"
     objecttolerance="10"
     gridtolerance="10"
     guidetolerance="10"
     inkscape:pageopacity="1"
     inkscape:pageshadow="2"
     inkscape:window-width="1600"
     inkscape:window-height="845"
     id="namedview159"
     showgrid="false"
     inkscape:zoom="0.8709174"
     inkscape:cx="528.76966"
     inkscape:cy="170.76488"
     inkscape:window-x="0"
     inkscape:window-y="27"
     inkscape:window-maximized="1"
     inkscape:current-layer="g159"
     inkscape:snap-page="true"
     inkscape:snap-text-baseline="true"
     inkscape:snap-bbox="true"
     inkscape:snap-center="true"
     inkscape:snap-object-midpoints="true"
     inkscape:bbox-nodes="true"
     inkscape:bbox-paths="true"
     inkscape:snap-bbox-edge-midpoints="true"
     inkscape:snap-bbox-midpoints="true"
     inkscape:measure-start="253.825,344.269"
     inkscape:measure-end="285.386,344.269"
     fit-margin-top="0"
     fit-margin-left="0"
     fit-margin-right="0"
     fit-margin-bottom="0" /><metadata
     id="metadata155"><rdf:RDF><cc:Work
         rdf:about=""><dc:format>image/svg+xml</dc:format><dc:type
           rdf:resource="http://purl.org/dc/dcmitype/StillImage" /><dc:title /></cc:Work></rdf:RDF></metadata><defs
     id="defs153" /><g
     transform="matrix(1.3333333,0,0,-1.3333333,39.602311,405.71997)"
     id="g157"><g
       transform="scale(0.1)"
       id="g159"><g
         transform="matrix(1.2881112,0,0,1.2881112,-306.32319,-870.09363)"
         id="g353"><path
           d="m 2979.34,3029.79 h 3212.7 V 923.738 h -3212.7 v 2106.052 0"
           style="fill:#ffffff;fill-opacity:1;fill-rule:nonzero;stroke:none"
           id="path161"
           inkscape:connector-curvature="0" /><path
           d="m 2979.34,3029.79 h 3212.7 V 923.738 h -3212.7 z"
           style="fill:none;stroke:#2857af;stroke-width:15.97229958;stroke-linecap:butt;stroke-linejoin:miter;stroke-miterlimit:3.86369991;stroke-dasharray:none;stroke-opacity:1"
           id="path163"
           inkscape:connector-curvature="0" /><path
           d="m 2979.34,3029.79 h 1080.9 V 923.738 h -1080.9 v 2106.052 0"
           style="fill:#2857af;fill-opacity:1;fill-rule:nonzero;stroke:none"
           id="path165"
           inkscape:connector-curvature="0" /><path
           d="m 4060.24,1970.34 h 2131.8 V 923.738 h -2131.8 v 1046.602 0"
           style="fill:#e51636;fill-opacity:1;fill-rule:nonzero;stroke:none"
           id="path167"
           inkscape:connector-curvature="0" /><path
           d="m 4060.24,1970.34 h 2131.8 V 923.738 h -2131.8 z"
           style="fill:none;stroke:#2857af;stroke-width:15.97229958;stroke-linecap:butt;stroke-linejoin:miter;stroke-miterlimit:3.86369991;stroke-dasharray:none;stroke-opacity:1"
           id="path169"
           inkscape:connector-curvature="0" /><path
           d="M 4142.31,989.66 3532.66,1328.88 2923,989.66 l 134.19,684.67 -510.98,474.99 692.58,83.92 293.88,632.78 293.82,-632.78 692.62,-83.94 -511.01,-474.99 134.21,-684.65 v 0"
           style="fill:#ffffff;fill-opacity:1;fill-rule:nonzero;stroke:none"
           id="path171"
           inkscape:connector-curvature="0" /><path
           d="M 4142.31,989.66 3532.66,1328.88 2923,989.66 l 134.19,684.67 -510.98,474.99 692.58,83.92 293.88,632.78 293.82,-632.78 692.62,-83.94 -511.01,-474.99 z"
           style="fill:none;stroke:#2857af;stroke-width:15.97229958;stroke-linecap:butt;stroke-linejoin:miter;stroke-miterlimit:3.86369991;stroke-dasharray:none;stroke-opacity:1"
           id="path173"
           inkscape:connector-curvature="0" /><path
           d="m 3117.6,1877.51 c 72.07,47.53 128.59,49.99 199.04,100.75 31.93,22.93 18.78,40.6 50.72,62.73 55.69,39.28 110.66,42.82 175.37,64.93 27.01,9.01 33.82,31.12 62.25,34.82 58.34,7.63 68.05,6.03 118.82,6.03 0,-5.73 29.12,-5.44 27.63,-11.55 -3.64,-15.11 -42.2,-19.06 -48.75,-32.15 11.48,-4.92 39.02,-6.85 52.13,-6.85 71.27,0 100.75,49.94 169.54,68.78 119.59,32.76 174.61,57.75 298.27,57.75 166.27,0 234.97,-44.68 411.37,-67.43 121.04,-15.61 179.69,-12.94 300.73,-26.03 109.11,-11.82 131.02,-9.07 223.6,-68.87 24.56,-15.56 48.76,-33.59 72.91,-55.76 40.12,0 120.49,-3.45 160.47,-7 63.34,-5.6 169.3,-61.46 273.94,-122.59 87.44,-51.1 114.13,-57.16 224.68,-57.16 48.34,0 79.56,21.25 106.9,24.29 61.86,-17.16 36.12,-60.59 -0.48,-59.32 -36.32,-5.55 -73.41,-21.46 -109.45,-21.46 -67.16,0 -117.2,-3.03 -173.67,15.19 -69.52,22.41 -49.1,21.26 -112.98,56.48 -49.16,27.03 -78.91,51.02 -134.22,62.54 -59.95,12.49 -96.19,24.5 -159.25,24.5 -6.54,0 -31.45,3.32 -31.45,-3.24 23.05,-56.47 55.74,-90.96 86.05,-130.28 67.18,-85.99 139.22,-127.77 248.17,-127.77 50.77,0 38.57,-3.41 89.35,-3.41 23.74,0 52.25,-65.34 71.91,-78.46 49.14,-32.75 84.56,-55.34 143,-58.59 58.79,-3.29 142.54,67.52 173.24,6.97 16.65,-32.88 -47.37,-62.7 -87.42,-75.81 -157.87,-23.67 -218.99,16.22 -330.03,94.67 -114.34,3.28 -169.82,-2.47 -278.74,-2.47 -207.2,0 -372.46,31.29 -513.33,184.45 -56.54,61.44 -64.9,108.75 -123.88,167.72 -85.19,-54.89 -139.63,-88.7 -230.54,-133.76 -135.99,-67.95 -219.11,-107.87 -370.63,-107.87 -34.4,0 -54.07,9.84 -88.45,9.84 -33.58,0 -28.68,-48.32 -54.89,-67.98 -32.75,-24.58 -92.98,-4.56 -133.73,-0.5 -202.54,20.12 -228.83,65.09 -483,48.82 -114.45,-7.31 -131.86,-14.89 -243.39,-62.08 -22.62,-9.56 -87.28,12.43 -60.4,53.53 21.8,33.38 60.94,54.67 124,66.95 104.83,20.48 160.96,30.07 267.42,30.07 91.73,0 81.36,2.98 173.1,2.98 58.14,0 170.02,13.75 170.02,71.89 0,16.39 5.64,21.28 -6.38,41.31 0,0 -32.1,17.28 -59.09,21.39 -60.54,7.43 -91.86,7.43 -158.8,-0.83 -47.97,-5.91 -132.46,-39.94 -177.85,-54.6 -72.65,-23.46 -83.93,-26.6 -177.3,-26.6 -53.25,0 -136.36,16.54 -136.36,69.76 0,7.37 9.83,13.93 9.83,21.28 v 0"
           style="fill:#100f0d;fill-opacity:1;fill-rule:nonzero;stroke:none"
           id="path175"
           inkscape:connector-curvature="0" /></g><g
         transform="matrix(1.2913909,0,0,1.2913909,-297.01734,-886.66982)"
         id="g339"><path
           d="m 917.875,1318.4 c -0.68,3.05 -1.176,6.62 -1.531,10.7 -0.336,4.08 -0.492,7.99 -0.492,11.73 0,1.7 -0.707,2.55 -2.043,2.55 -3.75,0 -7.649,-1.28 -11.731,-3.82 -4.086,-2.55 -8.152,-5.95 -12.242,-10.2 -4.078,-4.25 -8.164,-9.1 -12.234,-14.53 -4.071,-5.44 -7.832,-11.05 -11.219,-16.83 -4.426,-7.48 -8.418,-15.55 -11.988,-24.23 -3.571,-8.66 -5.18,-16.9 -4.848,-24.73 0,-2.38 0.433,-4.59 1.277,-6.63 0.86,-2.04 2.797,-3.05 5.86,-3.05 5.789,0 12.07,3.23 18.875,9.68 6.8,6.46 13.257,14.02 19.375,22.7 6.129,8.66 11.3,17.42 15.562,26.26 4.25,8.83 6.699,15.64 7.379,20.4 z m 84.145,3.57 c -5.782,-7.83 -12.832,-14.88 -21.165,-21.18 -8.328,-6.28 -17.769,-9.42 -28.281,-9.42 -5.793,0 -11.496,1.44 -17.094,4.32 -5.621,2.91 -10.125,7.23 -13.511,13.01 -2.391,-5.42 -5.442,-11.64 -9.196,-18.61 -3.726,-6.97 -8.148,-13.93 -13.246,-20.91 -5.093,-6.96 -10.797,-13.34 -17.078,-19.12 -6.281,-5.78 -13.008,-10.53 -20.148,-14.28 -6.113,-2.71 -11.215,-4.07 -15.289,-4.07 -12.242,0 -18.367,5.43 -18.367,16.31 0,6.13 1.113,12.42 3.308,18.86 2.207,6.47 5.024,12.75 8.43,18.88 3.39,6.11 7.035,11.9 10.945,17.33 3.922,5.46 7.578,9.87 10.973,13.26 7.14,7.81 15.301,14.45 24.476,19.89 9.18,5.44 19.036,8.66 29.567,9.7 0.703,2.7 1.719,5.85 3.066,9.41 1.367,3.58 3.738,5.71 7.149,6.38 1.683,0.35 3.402,0.7 5.097,1.02 1.696,0.34 3.223,0.85 4.578,1.54 1.016,0.67 2.047,0.75 3.059,0.25 1.027,-0.51 1.187,-1.45 0.52,-2.81 -2.391,-3.73 -4.172,-8.5 -5.36,-14.27 -1.187,-5.78 -1.785,-12.07 -1.785,-18.86 0,-9.53 1.785,-17.34 5.363,-23.46 3.571,-6.12 9.778,-9.18 18.606,-9.18 8.836,0 16.82,2.88 23.961,8.66 7.136,5.78 13.097,12.08 17.855,18.87 0.684,1.7 1.777,2.21 3.307,1.53 1.54,-0.68 1.62,-1.7 0.26,-3.05"
           style="fill:#2857af;fill-opacity:1;fill-rule:nonzero;stroke:none"
           id="path177"
           inkscape:connector-curvature="0" /><path
           d="m 1273.78,1599.87 c 0,-1.37 -0.24,-3.74 -0.76,-7.14 -0.5,-3.4 -1.02,-7.14 -1.53,-11.21 -0.52,-4.08 -1.02,-8.16 -1.53,-12.25 -0.52,-4.08 -0.77,-7.14 -0.77,-9.17 -0.67,-0.69 -1.53,-1.03 -2.54,-1.03 -0.69,0 -1.37,0.34 -2.05,1.03 0.68,2.72 1.11,5.09 1.28,7.14 0.17,2.03 0.26,4.07 0.26,6.12 0,6.8 -2.81,12.07 -8.42,15.8 -5.62,3.73 -13.5,5.61 -23.71,5.61 -7.13,0 -14.53,-1.19 -22.19,-3.57 -7.65,-2.37 -15.46,-6.63 -23.45,-12.75 -7.99,-6.11 -16.31,-14.27 -24.99,-24.48 -8.66,-10.2 -17.59,-23.11 -26.76,-38.75 -5.11,-8.84 -11.39,-20.22 -18.88,-34.17 -7.47,-13.92 -15.45,-28.81 -23.96,-44.62 -8.5,-15.8 -16.99,-31.95 -25.49,-48.44 -8.5,-16.48 -16.32,-31.87 -23.47,-46.14 3.05,0 8.17,0.08 15.32,0.25 7.13,0.18 14.44,0.26 21.91,0.26 7.48,0 14.29,0 20.41,0 6.44,0 10.7,0 12.74,0 1.71,-1.02 2.22,-2.72 1.52,-5.1 -1.35,0 -4.75,0 -10.21,0 -5.42,0 -11.87,-0.09 -19.36,-0.25 -7.49,-0.17 -15.21,-0.33 -23.21,-0.52 -7.98,-0.17 -15.2,-0.25 -21.66,-0.25 -11.21,-21.76 -23.03,-43.6 -35.44,-65.53 -12.402,-21.92 -24.824,-43.09 -37.231,-63.48 -12.406,-20.4 -24.648,-39.36 -36.711,-56.85 -12.062,-17.52 -23.207,-32.9 -33.394,-46.16 -25.496,-32.63 -49.719,-60.26 -72.668,-82.85 -22.949,-22.608 -44.789,-40.972 -65.527,-55.089 -20.743,-14.101 -40.192,-24.301 -58.387,-30.59 -18.188,-6.281 -35.445,-9.429 -51.754,-9.429 -4.75,0 -9.945,0.508 -15.547,1.527 -5.605,1.031 -11.047,3.07 -16.324,6.121 -5.258,3.059 -9.938,7.399 -14.024,13.012 -4.085,5.598 -7.136,12.988 -9.179,22.168 0,2.719 0.336,3.922 1.023,3.57 0.692,-0.32 1.352,-1.351 2.039,-3.058 0.352,-2.372 1.696,-5.524 4.082,-9.43 2.383,-3.91 5.871,-7.731 10.45,-11.473 4.593,-3.75 10.296,-6.89 17.074,-9.429 6.812,-2.559 14.984,-3.829 24.48,-3.829 15.305,0.348 31.875,3.129 49.731,8.411 17.84,5.269 36.625,14.539 56.336,27.789 19.722,13.257 40.375,31.019 61.957,53.309 21.589,22.25 43.941,50.39 67.066,84.37 12.234,18.01 24.391,37.32 36.441,57.88 12.075,20.55 23.797,40.97 35.192,61.19 11.387,20.24 22.094,39.69 32.121,58.38 10.024,18.71 19.114,35.02 27.294,48.97 -14.62,-1.03 -26.185,-2.05 -34.685,-3.07 -8.492,-1.02 -15.3,-2.63 -20.39,-4.84 -5.114,-2.21 -9.102,-5.45 -11.985,-9.71 -2.879,-4.23 -6.207,-10.1 -9.949,-17.57 l -1.535,0.5 c 4.777,11.22 9.527,19.63 14.281,25.24 4.762,5.62 9.188,9.1 13.258,10.46 2.73,0.68 6.398,1.36 10.965,2.03 4.582,0.69 9.523,1.19 14.805,1.54 5.255,0.34 10.445,0.67 15.535,1.02 5.1,0.34 9.51,0.51 13.25,0.51 17.01,31.27 33.41,60.26 49.22,86.93 15.81,26.7 32.21,52.79 49.21,78.29 9.17,13.93 19.04,27.45 29.58,40.54 10.53,13.09 21.24,24.64 32.13,34.67 10.87,10.03 21.66,18.02 32.36,23.96 10.72,5.95 21,8.93 30.86,8.93 6.8,0 12.74,-1.53 17.85,-4.59 5.1,-3.06 7.64,-6.63 7.64,-10.71"
           style="fill:#2857af;fill-opacity:1;fill-rule:nonzero;stroke:none"
           id="path179"
           inkscape:connector-curvature="0" /><g
           transform="translate(0,1.9308633e-5)"
           id="g403"><path
             id="path181"
             style="fill:#11100e;fill-opacity:1;fill-rule:nonzero;stroke:none"
             d="m 223.77,2725.03 c -27.399,-20.11 -57.723,-30.18 -90.981,-30.18 -43.5546,0 -76.5702,14.77 -99.0624,44.3 C 11.2305,2768.7 0,2811.89 0,2868.74 c 0,54.96 10.8828,97.71 32.6641,128.28 21.7656,30.57 55.1367,45.85 100.1249,45.85 16.152,0 32.145,-2.06 47.992,-6.17 15.836,-4.13 28.574,-9.58 38.246,-16.4 l -12.839,-30.64 c -22.333,12.67 -46.786,19 -73.399,19 -30.715,0 -53.6484,-11.24 -68.7695,-33.73 -15.1289,-22.49 -22.6875,-57.88 -22.6875,-106.19 0,-93.11 30.4805,-139.67 91.457,-139.67 22.965,0 40.309,4.82 52.016,14.48 v 82.67 h -60.336 v 33.73 h 99.301 v -134.92"
             inkscape:connector-curvature="0" /><path
             id="path183"
             style="fill:#11100e;fill-opacity:1;fill-rule:nonzero;stroke:none"
             d="m 485.465,2942.14 -14.977,-35.62 c -16.304,7.12 -30.41,10.69 -42.269,10.69 -10.946,0 -21.633,-3.14 -32.086,-9.39 -10.442,-6.26 -20.07,-15.21 -28.863,-26.84 -8.79,-11.64 -13.192,-18.17 -13.192,-19.59 V 2701.27 H 317.27 v 247.53 h 36.808 v -50.12 c 19.801,37.37 45.473,56.06 76.977,56.06 18.703,0 36.836,-4.2 54.41,-12.6"
             inkscape:connector-curvature="0" /><path
             id="path185"
             style="fill:#11100e;fill-opacity:1;fill-rule:nonzero;stroke:none"
             d="m 691.887,2854.02 c 0,19.32 -6.032,35.59 -18.055,48.82 -12.047,13.21 -25.504,19.83 -40.394,19.83 -19.157,0 -35.04,-6.34 -47.618,-19.01 -12.59,-12.67 -19.621,-29.21 -21.031,-49.64 z m 40.371,-30.16 h -169.84 c 0,-28.04 8.117,-51.16 24.344,-69.38 16.23,-18.21 36.164,-27.31 59.746,-27.31 22.484,0 45.683,4.03 69.609,12.11 l 6.418,-29.69 c -21.859,-9.82 -47.355,-14.74 -76.512,-14.74 -36.742,0 -66.339,11.8 -88.832,35.4 -22.484,23.6 -33.73,55.42 -33.73,95.5 0,39.27 10.098,70.59 30.293,93.95 20.176,23.36 46.269,35.04 78.273,35.04 28.496,0 52.332,-10.85 71.493,-32.55 19.168,-21.69 28.738,-50.59 28.738,-86.7 v -11.63"
             inkscape:connector-curvature="0" /><path
             id="path187"
             style="fill:#11100e;fill-opacity:1;fill-rule:nonzero;stroke:none"
             d="m 979.313,2948.8 -93.829,-247.53 c -13.621,-36.42 -27.117,-61.85 -40.5,-76.25 -13.382,-14.41 -28.621,-21.62 -45.73,-21.62 -15.195,0 -30.246,2.77 -45.133,8.31 l 6.168,29.7 c 12.055,-3.8 22.816,-5.7 32.316,-5.7 13.297,0 24.227,5.14 32.778,15.43 8.555,10.31 17.183,27.16 25.894,50.61 l -92.894,247.05 h 40.394 l 70.075,-197.41 70.074,197.41 h 40.387"
             inkscape:connector-curvature="0" /><path
             id="path189"
             style="fill:#11100e;fill-opacity:1;fill-rule:nonzero;stroke:none"
             d="m 1247.88,2701.27 h -37.05 v 158.68 c 0,22.01 -3.53,37.98 -10.59,47.87 -7.04,9.9 -18.08,14.85 -33.13,14.85 -22.65,0 -46.94,-14.1 -72.92,-42.29 v -179.11 h -37.06 v 335.19 h 37.06 v -124.01 c 26.61,28.2 54.63,42.29 84.1,42.29 46.39,0 69.59,-28.04 69.59,-84.1 v -169.37"
             inkscape:connector-curvature="0" /><path
             id="path191"
             style="fill:#11100e;fill-opacity:1;fill-rule:nonzero;stroke:none"
             d="m 1431.64,2727.17 c 22.49,0 40.23,9.48 53.22,28.5 12.99,19.01 19.47,42.05 19.47,69.14 0,28.49 -6.4,51.93 -19.23,70.3 -12.84,18.37 -30.66,27.56 -53.46,27.56 -22.97,0 -40.78,-9.07 -53.44,-27.2 -12.68,-18.13 -19.01,-41.69 -19.01,-70.66 0,-27.57 6.42,-50.72 19.24,-69.5 12.82,-18.77 30.56,-28.14 53.21,-28.14 z m 0,227.57 c 34.05,0 61.13,-11.88 81.25,-35.63 20.11,-23.76 30.17,-55.04 30.17,-93.84 0,-39.12 -10.06,-70.63 -30.17,-94.54 -20.12,-23.93 -47.2,-35.88 -81.25,-35.88 -34.2,0 -61.32,11.92 -81.36,35.76 -20.04,23.83 -30.05,55.39 -30.05,94.66 0,38.95 10.06,70.28 30.16,93.96 20.13,23.67 47.2,35.51 81.25,35.51"
             inkscape:connector-curvature="0" /><path
             id="path193"
             style="fill:#11100e;fill-opacity:1;fill-rule:nonzero;stroke:none"
             d="m 1814.16,2701.27 h -37.06 v 36.58 c -26.6,-28.35 -54.64,-42.52 -84.09,-42.52 -46.41,0 -69.6,28.12 -69.6,84.34 v 169.13 h 37.05 v -158.44 c 0,-21.07 3.33,-36.79 9.98,-47.16 6.64,-10.38 17.9,-15.56 33.73,-15.56 22.65,0 46.95,14.09 72.93,42.27 v 178.89 h 37.06 v -247.53"
             inkscape:connector-curvature="0" /><path
             id="path195"
             style="fill:#11100e;fill-opacity:1;fill-rule:nonzero;stroke:none"
             d="m 2101.66,2701.27 h -37.07 v 158.68 c 0,22.01 -3.51,37.98 -10.56,47.87 -7.05,9.9 -18.12,14.85 -33.14,14.85 -22.65,0 -46.94,-14.1 -72.93,-42.29 v -179.11 h -37.05 v 247.53 h 37.05 v -36.35 c 26.61,28.2 54.65,42.29 84.09,42.29 46.43,0 69.61,-28.04 69.61,-84.1 v -169.37"
             inkscape:connector-curvature="0" /><path
             id="path197"
             style="fill:#11100e;fill-opacity:1;fill-rule:nonzero;stroke:none"
             d="m 2350.68,2777.05 v 102.86 c -17.75,28.51 -39.12,42.76 -64.14,42.76 -20.44,0 -36.59,-9.07 -48.46,-27.2 -11.88,-18.13 -17.82,-41.06 -17.82,-68.76 0,-28.52 5.58,-52.07 16.75,-70.69 11.16,-18.61 26.49,-27.91 45.97,-27.91 9.33,0 18.75,2.54 28.27,7.6 9.5,5.07 18.45,12.68 26.84,22.81 8.4,10.14 12.59,16.31 12.59,18.53 z m 37.05,-75.78 h -37.05 v 35.63 c -7.61,-12.19 -18.49,-22.25 -32.69,-30.17 -14.16,-7.92 -29.07,-11.88 -44.78,-11.88 -28.31,0 -50.73,12.63 -67.2,37.89 -16.47,25.26 -24.71,57.3 -24.71,96.1 0,36.27 8.59,66.31 25.78,90.15 17.16,23.83 39.96,35.75 68.29,35.75 31.19,0 56.3,-12.68 75.31,-38.01 v 119.73 h 37.05 v -335.19"
             inkscape:connector-curvature="0" /></g><g
           transform="translate(0,-4.2495241)"
           id="g392"><path
             id="path199"
             style="fill:#11100e;fill-opacity:1;fill-rule:nonzero;stroke:none"
             d="m 517.668,2346.68 -43.961,138.73 -43.703,-138.73 z m 89.074,-151.32 h -40.863 l -37.047,117.35 H 418.84 l -37.527,-117.35 h -40.395 l 109.516,335.18 h 46.796 l 109.512,-335.18"
             inkscape:connector-curvature="0" /><path
             id="path201"
             style="fill:#11100e;fill-opacity:1;fill-rule:nonzero;stroke:none"
             d="M 813.359,2271.14 V 2374 c -17.722,28.51 -39.117,42.76 -64.136,42.76 -20.43,0 -36.586,-9.07 -48.461,-27.2 -11.883,-18.13 -17.813,-41.06 -17.813,-68.77 0,-28.51 5.574,-52.07 16.739,-70.68 11.175,-18.61 26.496,-27.91 45.964,-27.91 9.352,0 18.766,2.54 28.278,7.6 9.5,5.07 18.457,12.66 26.84,22.81 8.39,10.14 12.589,16.31 12.589,18.53 z m 37.051,-75.78 H 813.359 V 2231 c -7.601,-12.21 -18.492,-22.26 -32.656,-30.18 -14.18,-7.91 -29.098,-11.87 -44.781,-11.87 -28.359,0 -50.766,12.62 -67.234,37.89 -16.477,25.25 -24.708,57.28 -24.708,96.09 0,36.26 8.602,66.31 25.778,90.15 17.195,23.83 39.961,35.75 68.301,35.75 31.195,0 56.293,-12.67 75.3,-38.01 v 119.72 h 37.051 v -335.18"
             inkscape:connector-curvature="0" /><path
             id="path203"
             style="fill:#11100e;fill-opacity:1;fill-rule:nonzero;stroke:none"
             d="m 1037.56,2221.25 c 22.5,0 40.22,9.5 53.22,28.5 12.97,19.01 19.47,42.05 19.47,69.14 0,28.5 -6.42,51.94 -19.25,70.3 -12.82,18.38 -30.63,27.57 -53.44,27.57 -22.97,0 -40.775,-9.07 -53.458,-27.2 -12.657,-18.13 -18.997,-41.69 -18.997,-70.67 0,-27.56 6.415,-50.72 19.243,-69.5 12.82,-18.75 30.562,-28.14 53.212,-28.14 z m 0,227.58 c 34.06,0 61.13,-11.88 81.24,-35.62 20.11,-23.76 30.17,-55.05 30.17,-93.85 0,-39.12 -10.06,-70.63 -30.17,-94.54 -20.11,-23.93 -47.18,-35.87 -81.24,-35.87 -34.21,0 -61.326,11.91 -81.361,35.75 -20.039,23.83 -30.054,55.38 -30.054,94.66 0,38.95 10.054,70.28 30.168,93.95 20.125,23.68 47.197,35.52 81.247,35.52"
             inkscape:connector-curvature="0" /><path
             id="path205"
             style="fill:#11100e;fill-opacity:1;fill-rule:nonzero;stroke:none"
             d="m 1262,2374 v -102.86 c 6.96,-13.93 16.39,-25.58 28.26,-34.92 11.88,-9.34 24.15,-14.02 36.82,-14.02 19.94,0 35.83,9.34 47.62,28.03 11.82,18.69 17.7,41.89 17.7,69.61 0,28.5 -5.61,51.78 -16.85,69.84 -11.25,18.05 -26.93,27.08 -47.04,27.08 -26.13,0 -48.3,-14.25 -66.51,-42.76 z m 0,36.82 c 8.22,11.4 19.35,20.59 33.37,27.55 14,6.97 28.79,10.46 44.32,10.46 28.5,0 50.86,-11.76 67.08,-35.27 16.25,-23.53 24.38,-54.13 24.38,-91.83 0,-38.01 -8.53,-69.64 -25.55,-94.89 -17.04,-25.27 -39.97,-37.89 -68.77,-37.89 -15.37,0 -29.75,3.84 -43.12,11.51 -13.39,7.69 -23.96,17.86 -31.71,30.54 v -133.51 h -37.06 v 345.39 H 1262 v -32.06"
             inkscape:connector-curvature="0" /><path
             id="path207"
             style="fill:#11100e;fill-opacity:1;fill-rule:nonzero;stroke:none"
             d="m 1661.32,2206.53 c -24.86,-11.41 -49.33,-17.12 -73.4,-17.12 -44.18,0 -66.28,23.37 -66.28,70.1 v 151.31 h -47.5 v 32.06 h 47.5 v 67.71 h 36.1 v -67.71 h 84.11 v -32.06 h -84.11 v -141.58 c 0,-15.05 3.32,-26.72 9.98,-35.04 6.66,-8.32 15.69,-12.47 27.07,-12.47 20.28,0 40.31,4.51 60.12,13.54 l 6.41,-28.74"
             inkscape:connector-curvature="0" /><path
             id="path209"
             style="fill:#11100e;fill-opacity:1;fill-rule:nonzero;stroke:none"
             d="m 1810.22,2536.49 c 6.95,0 12.9,-2.5 17.81,-7.48 4.89,-5 7.37,-10.97 7.37,-17.94 0,-7.29 -2.44,-13.39 -7.25,-18.3 -4.84,-4.91 -10.81,-7.36 -17.93,-7.36 -6.51,0 -12.24,2.57 -17.24,7.72 -4.99,5.16 -7.47,11.13 -7.47,17.94 0,6.8 2.48,12.75 7.47,17.81 5,5.07 10.73,7.61 17.24,7.61 z m 18.05,-341.13 h -37.07 v 215.46 h -72.94 v 32.06 h 110.01 v -247.52"
             inkscape:connector-curvature="0" /><path
             id="path211"
             style="fill:#11100e;fill-opacity:1;fill-rule:nonzero;stroke:none"
             d="m 2025.14,2221.25 c 22.51,0 40.23,9.5 53.22,28.5 12.99,19.01 19.48,42.05 19.48,69.14 0,28.5 -6.42,51.94 -19.25,70.3 -12.82,18.38 -30.64,27.57 -53.45,27.57 -22.96,0 -40.78,-9.07 -53.45,-27.2 -12.67,-18.13 -18.99,-41.69 -18.99,-70.67 0,-27.56 6.39,-50.72 19.23,-69.5 12.83,-18.75 30.57,-28.14 53.21,-28.14 z m 0,227.58 c 34.06,0 61.13,-11.88 81.25,-35.62 20.11,-23.76 30.16,-55.05 30.16,-93.85 0,-39.12 -10.05,-70.63 -30.16,-94.54 -20.12,-23.93 -47.19,-35.87 -81.25,-35.87 -34.2,0 -61.32,11.91 -81.34,35.75 -20.04,23.83 -30.06,55.38 -30.06,94.66 0,38.95 10.04,70.28 30.16,93.95 20.12,23.68 47.19,35.52 81.24,35.52"
             inkscape:connector-curvature="0" /><path
             id="path213"
             style="fill:#11100e;fill-opacity:1;fill-rule:nonzero;stroke:none"
             d="m 2388.68,2195.36 h -37.06 v 158.69 c 0,22 -3.51,37.96 -10.57,47.86 -7.05,9.89 -18.09,14.85 -33.14,14.85 -22.63,0 -46.95,-14.1 -72.93,-42.28 v -179.12 h -37.06 v 247.52 h 37.06 v -36.34 c 26.62,28.19 54.63,42.29 84.11,42.29 46.39,0 69.59,-28.03 69.59,-84.1 v -169.37"
             inkscape:connector-curvature="0" /></g><g
           transform="translate(0,-2.5490551)"
           id="g382"><path
             id="path215"
             style="fill:#11100e;fill-opacity:1;fill-rule:nonzero;stroke:none"
             d="M 993.906,1689.45 H 811.453 v 335.18 h 38.957 v -301.22 h 143.496 v -33.96"
             inkscape:connector-curvature="0" /><path
             id="path217"
             style="fill:#11100e;fill-opacity:1;fill-rule:nonzero;stroke:none"
             d="m 1236.75,1842.19 c 0,19.32 -6.02,35.6 -18.07,48.82 -12.01,13.22 -25.48,19.84 -40.36,19.84 -19.16,0 -35.04,-6.34 -47.64,-19.02 -12.6,-12.66 -19.61,-29.21 -21.03,-49.64 z m 40.38,-30.17 h -169.84 c 0,-28.03 8.12,-51.15 24.35,-69.36 16.22,-18.21 36.15,-27.32 59.74,-27.32 22.49,0 45.69,4.04 69.61,12.11 l 6.4,-29.69 c -21.85,-9.82 -47.35,-14.72 -76.49,-14.72 -36.74,0 -66.35,11.79 -88.83,35.39 -22.51,23.59 -33.74,55.43 -33.74,95.49 0,39.28 10.1,70.6 30.29,93.95 20.18,23.36 46.27,35.04 78.27,35.04 28.52,0 52.32,-10.84 71.52,-32.54 19.14,-21.7 28.72,-50.61 28.72,-86.71 v -11.64"
             inkscape:connector-curvature="0" /><path
             id="path219"
             style="fill:#11100e;fill-opacity:1;fill-rule:nonzero;stroke:none"
             d="m 1510,1762.86 v 44.89 c -33.4,-3.01 -56.33,-5.82 -68.76,-8.43 -12.44,-2.62 -23.2,-7.49 -32.32,-14.61 -9.1,-7.13 -13.65,-16.79 -13.65,-28.98 0,-11.09 3.87,-20.04 11.64,-26.84 7.76,-6.83 17.65,-10.22 29.7,-10.22 13.13,0 26.19,3.92 39.18,11.76 12.99,7.84 24.39,18.65 34.21,32.43 z m 43.26,-73.41 h -36.82 c -3.02,9.98 -4.53,23.27 -4.53,39.9 -21.07,-30.88 -49.74,-46.31 -86.01,-46.31 -18.36,0 -34.56,6.53 -48.57,19.59 -14.02,13.07 -21.02,29.89 -21.02,50.47 0,12.2 2.44,22.97 7.36,32.31 4.91,9.35 12.13,17.23 21.61,23.65 9.5,6.41 21.06,11.48 34.69,15.19 13.62,3.73 29.77,6.3 48.45,7.72 l 41.58,3.34 v 11.88 c 0,42.43 -19.78,63.66 -59.38,63.66 -9.36,0 -21.2,-2.02 -35.52,-6.07 -14.34,-4.03 -26.65,-8.82 -36.93,-14.37 l -9.75,26.61 c 33.73,17.27 65.1,25.89 94.07,25.89 56.38,0 84.57,-29.85 84.57,-89.55 v -106.43 c 0,-21.54 2.07,-40.7 6.2,-57.48"
             inkscape:connector-curvature="0" /><path
             id="path221"
             style="fill:#11100e;fill-opacity:1;fill-rule:nonzero;stroke:none"
             d="m 1716.75,1811.07 c 13.62,0 24.74,4.72 33.39,14.13 8.61,9.43 12.94,21.74 12.94,36.95 0,15.98 -4.21,28.5 -12.6,37.53 -8.39,9.02 -19.64,13.54 -33.73,13.54 -13.15,0 -24.19,-4.7 -33.15,-14.13 -8.94,-9.42 -13.4,-21.74 -13.4,-36.94 0,-14.89 4.46,-27.13 13.4,-36.71 8.96,-9.58 20,-14.37 33.15,-14.37 z m 1.42,-190.74 c 24.39,0 45.17,5.41 62.36,16.26 17.18,10.85 25.79,24.27 25.79,40.26 0,16.47 -12.2,24.72 -36.6,24.72 -8.07,0 -22,-0.47 -41.8,-1.44 -12.53,-0.63 -22.32,-0.95 -29.46,-0.95 -3.49,0 -8.91,-2.84 -16.28,-8.54 -7.35,-5.7 -12.99,-11.45 -16.86,-17.24 -3.87,-5.76 -5.82,-11.74 -5.82,-17.92 0,-9.67 5.39,-17.94 16.15,-24.82 10.78,-6.89 24.94,-10.33 42.52,-10.33 z m -15.92,162.48 c -23.12,-11.25 -34.68,-21.15 -34.68,-29.71 0,-4.58 2.66,-8.47 7.98,-11.62 5.29,-3.18 12.54,-4.76 21.73,-4.76 l 83.37,2.38 c 19.79,0 35.2,-4.84 46.21,-14.5 11,-9.66 16.52,-23.36 16.52,-41.1 0,-28.02 -12.52,-50.35 -37.55,-66.98 -25.01,-16.63 -54.24,-24.94 -87.66,-24.94 -27.38,0 -49.79,5.74 -67.23,17.22 -17.42,11.48 -26.12,26.32 -26.12,44.53 0,19.81 13.46,36.52 40.38,50.14 -22.33,10.45 -33.49,23.28 -33.49,38.48 0,17.41 14.41,33.65 43.23,48.69 -13.31,8.08 -23.52,18.53 -30.64,31.36 -7.14,12.83 -10.71,26.38 -10.71,40.62 0,23.29 7.94,42.41 23.77,57.37 15.83,14.96 35.64,22.45 59.39,22.45 17.1,0 32.54,-3.56 46.33,-10.69 l 73.4,11.16 v -36.1 h -47.26 c 7.12,-12.51 10.68,-27.25 10.68,-44.19 0,-22.49 -7.86,-41.49 -23.52,-57.01 -15.69,-15.52 -35.55,-23.28 -59.63,-23.28 -5.07,0 -9.9,0.15 -14.5,0.48"
             inkscape:connector-curvature="0" /><path
             id="path223"
             style="fill:#11100e;fill-opacity:1;fill-rule:nonzero;stroke:none"
             d="m 2106.04,1689.45 h -37.06 v 36.59 c -26.59,-28.36 -54.64,-42.54 -84.09,-42.54 -46.4,0 -69.6,28.11 -69.6,84.35 v 169.13 h 37.05 v -158.45 c 0,-21.06 3.33,-36.79 9.98,-47.15 6.64,-10.38 17.9,-15.57 33.74,-15.57 22.65,0 46.96,14.1 72.92,42.28 v 178.89 h 37.06 v -247.53"
             inkscape:connector-curvature="0" /><path
             id="path225"
             style="fill:#11100e;fill-opacity:1;fill-rule:nonzero;stroke:none"
             d="m 2355.66,1842.19 c 0,19.32 -6.02,35.6 -18.05,48.82 -12.03,13.22 -25.5,19.84 -40.38,19.84 -19.15,0 -35.05,-6.34 -47.64,-19.02 -12.58,-12.66 -19.6,-29.21 -21.02,-49.64 z m 40.39,-30.17 h -169.84 c 0,-28.03 8.12,-51.15 24.34,-69.36 16.23,-18.21 36.15,-27.32 59.74,-27.32 22.5,0 45.7,4.04 69.62,12.11 l 6.39,-29.69 c -21.86,-9.82 -47.34,-14.72 -76.49,-14.72 -36.73,0 -66.35,11.79 -88.84,35.39 -22.48,23.59 -33.73,55.43 -33.73,95.49 0,39.28 10.09,70.6 30.3,93.95 20.17,23.36 46.27,35.04 78.27,35.04 28.51,0 52.32,-10.84 71.5,-32.54 19.15,-21.7 28.74,-50.61 28.74,-86.71 v -11.64"
             inkscape:connector-curvature="0" /></g><g
           transform="translate(0,-0.83866108)"
           id="g374"><path
             id="path227"
             style="fill:#11100e;fill-opacity:1;fill-rule:nonzero;stroke:none"
             d="m 1370.05,1487.13 h -103.34 v -303.6 h -38.72 v 303.6 h -103.81 v 31.58 h 245.87 v -31.58"
             inkscape:connector-curvature="0" /><path
             id="path229"
             style="fill:#11100e;fill-opacity:1;fill-rule:nonzero;stroke:none"
             d="m 1565.12,1336.27 c 0,19.33 -6.02,35.6 -18.06,48.83 -12.04,13.22 -25.5,19.84 -40.38,19.84 -19.16,0 -35.04,-6.34 -47.62,-19.01 -12.6,-12.67 -19.62,-29.22 -21.03,-49.66 z m 40.38,-30.16 h -169.83 c 0,-28.03 8.1,-51.15 24.33,-69.36 16.23,-18.23 36.14,-27.33 59.75,-27.33 22.48,0 45.67,4.05 69.6,12.12 l 6.41,-29.69 c -21.87,-9.82 -47.36,-14.73 -76.5,-14.73 -36.73,0 -66.34,11.79 -88.83,35.39 -22.5,23.59 -33.72,55.44 -33.72,95.51 0,39.26 10.07,70.59 30.27,93.94 20.18,23.36 46.28,35.05 78.27,35.05 28.51,0 52.34,-10.85 71.51,-32.55 19.16,-21.69 28.74,-50.61 28.74,-86.71 v -11.64"
             inkscape:connector-curvature="0" /><path
             id="path231"
             style="fill:#11100e;fill-opacity:1;fill-rule:nonzero;stroke:none"
             d="m 1862.34,1183.53 h -41.82 l -66.26,96.92 -68.66,-96.92 h -39.45 l 88.14,124.01 -88.14,123.52 h 42.54 l 66.5,-96.2 67.71,96.2 h 39.44 l -87.66,-122.1 87.66,-125.43"
             inkscape:connector-curvature="0" /><path
             id="path233"
             style="fill:#11100e;fill-opacity:1;fill-rule:nonzero;stroke:none"
             d="m 2084.05,1256.94 v 44.9 c -33.42,-3.02 -56.34,-5.83 -68.77,-8.44 -12.43,-2.61 -23.2,-7.48 -32.31,-14.61 -9.11,-7.12 -13.66,-16.78 -13.66,-28.98 0,-11.08 3.89,-20.03 11.64,-26.84 7.77,-6.81 17.66,-10.22 29.69,-10.22 13.16,0 26.21,3.92 39.2,11.76 12.98,7.84 24.38,18.64 34.21,32.43 z m 43.25,-73.41 h -36.84 c -3.01,9.98 -4.5,23.29 -4.5,39.91 -21.07,-30.88 -49.75,-46.32 -86,-46.32 -18.37,0 -34.57,6.53 -48.59,19.59 -14.01,13.08 -21.01,29.91 -21.01,50.49 0,12.19 2.45,22.97 7.36,32.31 4.91,9.34 12.12,17.22 21.62,23.62 9.49,6.43 21.06,11.48 34.67,15.22 13.64,3.72 29.79,6.29 48.47,7.72 l 41.57,3.33 v 11.86 c 0,42.45 -19.79,63.68 -59.39,63.68 -9.34,0 -21.19,-2.03 -35.51,-6.06 -14.33,-4.04 -26.65,-8.84 -36.92,-14.38 l -9.76,26.6 c 33.73,17.26 65.1,25.91 94.07,25.91 56.38,0 84.56,-29.86 84.56,-89.56 v -106.43 c 0,-21.52 2.07,-40.7 6.2,-57.49"
             inkscape:connector-curvature="0" /><path
             id="path235"
             style="fill:#11100e;fill-opacity:1;fill-rule:nonzero;stroke:none"
             d="m 2362.79,1395.67 c -20.74,6.81 -40.3,10.21 -58.67,10.21 -20.12,0 -36.04,-3.37 -47.75,-10.09 -11.72,-6.73 -17.58,-15.7 -17.58,-26.97 0,-7.12 2.69,-13.34 8.08,-18.64 5.37,-5.31 16.15,-10.25 32.3,-14.84 l 35.4,-10.23 c 16.31,-4.58 29.61,-10.09 39.91,-16.5 10.28,-6.41 18.01,-14.17 23.15,-23.29 5.15,-9.11 7.74,-19.67 7.74,-31.72 0,-23.59 -9.91,-42.23 -29.71,-55.94 -19.79,-13.7 -44.98,-20.54 -75.53,-20.54 -30.41,0 -55.51,4.6 -75.32,13.77 l 7.12,32.08 c 20.75,-9.82 43,-14.72 66.76,-14.72 20.59,0 37.35,3.82 50.25,11.51 12.89,7.68 19.37,17.85 19.37,30.53 0,8.54 -3.22,16.19 -9.63,22.92 -6.41,6.74 -21.49,13.74 -45.26,21.01 -19.15,5.87 -33.24,10.27 -42.28,13.19 -9.02,2.94 -17.42,7.25 -25.17,12.96 -7.77,5.7 -13.68,12.51 -17.71,20.42 -4.05,7.92 -6.05,16.79 -6.05,26.62 0,21.37 9.33,38.32 28.02,50.83 18.71,12.5 43.47,18.77 74.37,18.77 19.95,0 42.11,-3.41 66.5,-10.23 l -8.31,-31.11"
             inkscape:connector-curvature="0" /></g><g
           transform="translate(0,57.411791)"
           id="g367"><path
             id="path237"
             style="fill:#11100e;fill-opacity:1;fill-rule:nonzero;stroke:none"
             d="m 1368.35,1047.71 c 2.33,0 4.31,-0.84 5.94,-2.49 1.63,-1.67 2.46,-3.68 2.46,-5.98 0,-2.43 -0.8,-4.47 -2.42,-6.11 -1.61,-1.63 -3.61,-2.45 -5.98,-2.45 -2.16,0 -4.07,0.85 -5.72,2.59 -1.68,1.71 -2.51,3.69 -2.51,5.97 0,2.27 0.83,4.25 2.51,5.93 1.65,1.7 3.56,2.54 5.72,2.54 z m 6.02,-113.722 h -12.36 v 71.832 h -24.3 v 10.68 h 36.66 v -82.512"
             inkscape:connector-curvature="0" /><path
             id="path239"
             style="fill:#11100e;fill-opacity:1;fill-rule:nonzero;stroke:none"
             d="m 1484.16,933.988 h -12.36 v 52.903 c 0,7.339 -1.17,12.66 -3.52,15.969 -2.36,3.29 -6.04,4.94 -11.05,4.94 -7.54,0 -15.65,-4.7 -24.31,-14.101 v -59.711 h -12.35 v 82.512 h 12.35 v -12.12 c 8.89,9.42 18.21,14.11 28.03,14.11 15.48,0 23.21,-9.36 23.21,-28.041 v -56.461"
             inkscape:connector-curvature="0" /><path
             id="path241"
             style="fill:#11100e;fill-opacity:1;fill-rule:nonzero;stroke:none"
             d="m 1573.02,936.762 c -7.18,-3.274 -15.06,-4.903 -23.67,-4.903 -12.98,0 -23.34,3.961 -31.08,11.84 -7.74,7.903 -11.6,18.379 -11.6,31.481 0,13.101 3.89,23.582 11.68,31.46 7.79,7.9 18.02,11.85 30.69,11.85 8.28,0 16.17,-1.46 23.67,-4.36 l -3.23,-10.22 c -7.51,2.59 -14.27,3.89 -20.28,3.89 -9.09,0 -16.28,-2.93 -21.6,-8.788 -5.29,-5.852 -7.94,-13.821 -7.94,-23.832 0,-9.192 2.74,-16.918 8.24,-23.168 5.49,-6.25 12.64,-9.383 21.45,-9.383 6.97,0 14.16,1.351 21.55,4.019 l 2.12,-9.886"
             inkscape:connector-curvature="0" /><path
             id="path243"
             style="fill:#11100e;fill-opacity:1;fill-rule:nonzero;stroke:none"
             d="m 1630.55,942.629 c 7.49,0 13.42,3.16 17.72,9.492 4.35,6.348 6.52,14.027 6.52,23.059 0,9.488 -2.14,17.32 -6.43,23.429 -4.28,6.141 -10.21,9.191 -17.81,9.191 -7.68,0 -13.6,-3.02 -17.83,-9.07 -4.21,-6.039 -6.33,-13.902 -6.33,-23.55 0,-9.192 2.13,-16.918 6.43,-23.168 4.26,-6.25 10.17,-9.383 17.73,-9.383 z m 0,75.861 c 11.34,0 20.37,-3.97 27.07,-11.88 6.71,-7.93 10.06,-18.329 10.06,-31.282 0,-13.039 -3.35,-23.547 -10.06,-31.488 -6.7,-7.981 -15.73,-11.981 -27.07,-11.981 -11.41,0 -20.45,3.981 -27.12,11.903 -6.69,7.968 -10.02,18.468 -10.02,31.566 0,12.981 3.36,23.434 10.05,31.312 6.72,7.9 15.73,11.85 27.09,11.85"
             inkscape:connector-curvature="0" /><path
             id="path245"
             style="fill:#11100e;fill-opacity:1;fill-rule:nonzero;stroke:none"
             d="m 1752.99,1014.29 -4.99,-11.87 c -5.44,2.36 -10.12,3.56 -14.08,3.56 -3.65,0 -7.22,-1.05 -10.7,-3.12 -3.48,-2.1 -6.69,-5.09 -9.62,-8.962 -2.93,-3.878 -4.4,-6.046 -4.4,-6.527 v -53.383 h -12.27 v 82.512 h 12.27 v -16.699 c 6.6,12.449 15.15,18.689 25.67,18.689 6.22,0 12.27,-1.4 18.12,-4.2"
             inkscape:connector-curvature="0" /><path
             id="path247"
             style="fill:#11100e;fill-opacity:1;fill-rule:nonzero;stroke:none"
             d="m 1789.67,993.531 v -34.269 c 2.35,-4.653 5.48,-8.543 9.44,-11.653 3.96,-3.121 8.06,-4.668 12.27,-4.668 6.66,0 11.95,3.118 15.88,9.348 3.93,6.231 5.9,13.961 5.9,23.191 0,9.5 -1.87,17.258 -5.62,23.301 -3.75,5.999 -8.98,9.019 -15.68,9.019 -8.71,0 -16.09,-4.75 -22.19,-14.269 z m 0,12.289 c 2.78,3.8 6.46,6.85 11.16,9.18 4.65,2.33 9.57,3.49 14.76,3.49 9.49,0 16.95,-3.92 22.37,-11.76 5.39,-7.839 8.1,-18.039 8.1,-30.601 0,-12.68 -2.83,-23.231 -8.5,-31.641 -5.68,-8.418 -13.32,-12.629 -22.93,-12.629 -5.12,0 -9.91,1.289 -14.38,3.84 -4.46,2.563 -7.98,5.949 -10.58,10.18 v -44.488 h -12.33 V 1016.5 h 12.33 v -10.68"
             inkscape:connector-curvature="0" /><path
             id="path249"
             style="fill:#11100e;fill-opacity:1;fill-rule:nonzero;stroke:none"
             d="m 1898.12,942.629 c 7.5,0 13.41,3.16 17.73,9.492 4.34,6.348 6.51,14.027 6.51,23.059 0,9.488 -2.15,17.32 -6.43,23.429 -4.26,6.141 -10.21,9.191 -17.81,9.191 -7.65,0 -13.59,-3.02 -17.82,-9.07 -4.21,-6.039 -6.32,-13.902 -6.32,-23.55 0,-9.192 2.13,-16.918 6.4,-23.168 4.29,-6.25 10.18,-9.383 17.74,-9.383 z m 0,75.861 c 11.35,0 20.39,-3.97 27.08,-11.88 6.7,-7.93 10.05,-18.329 10.05,-31.282 0,-13.039 -3.35,-23.547 -10.05,-31.488 -6.69,-7.981 -15.73,-11.981 -27.08,-11.981 -11.41,0 -20.44,3.981 -27.12,11.903 -6.67,7.968 -10.01,18.468 -10.01,31.566 0,12.981 3.34,23.434 10.05,31.312 6.7,7.9 15.73,11.85 27.08,11.85"
             inkscape:connector-curvature="0" /><path
             id="path251"
             style="fill:#11100e;fill-opacity:1;fill-rule:nonzero;stroke:none"
             d="m 2020.57,1014.29 -4.99,-11.87 c -5.44,2.36 -10.14,3.56 -14.1,3.56 -3.63,0 -7.2,-1.05 -10.68,-3.12 -3.49,-2.1 -6.69,-5.09 -9.61,-8.962 -2.95,-3.878 -4.41,-6.046 -4.41,-6.527 v -53.383 h -12.27 v 82.512 h 12.27 v -16.699 c 6.6,12.449 15.15,18.689 25.66,18.689 6.23,0 12.28,-1.4 18.13,-4.2"
             inkscape:connector-curvature="0" /><path
             id="path253"
             style="fill:#11100e;fill-opacity:1;fill-rule:nonzero;stroke:none"
             d="m 2096.13,958.469 v 14.972 c -11.12,-1 -18.77,-1.953 -22.91,-2.82 -4.15,-0.883 -7.74,-2.492 -10.77,-4.883 -3.04,-2.367 -4.55,-5.578 -4.55,-9.66 0,-3.668 1.28,-6.668 3.87,-8.93 2.59,-2.277 5.91,-3.418 9.91,-3.418 4.37,0 8.73,1.321 13.07,3.93 4.31,2.621 8.13,6.211 11.38,10.809 z m 14.42,-24.481 h -12.26 c -1.02,3.332 -1.51,7.774 -1.51,13.301 -7.02,-10.277 -16.58,-15.43 -28.68,-15.43 -6.11,0 -11.51,2.18 -16.18,6.532 -4.68,4.347 -7.02,9.949 -7.02,16.828 0,4.062 0.83,7.652 2.46,10.769 1.64,3.121 4.05,5.731 7.22,7.883 3.15,2.117 7,3.82 11.55,5.059 4.55,1.25 9.92,2.109 16.16,2.59 l 13.84,1.101 v 3.969 c 0,14.13 -6.58,21.21 -19.78,21.21 -3.12,0 -7.06,-0.68 -11.84,-2.01 -4.79,-1.36 -8.89,-2.95 -12.31,-4.8 l -3.25,8.86 c 11.25,5.76 21.69,8.64 31.35,8.64 18.81,0 28.2,-9.95 28.2,-29.849 V 953.16 c 0,-7.18 0.69,-13.558 2.05,-19.172"
             inkscape:connector-curvature="0" /><path
             id="path255"
             style="fill:#11100e;fill-opacity:1;fill-rule:nonzero;stroke:none"
             d="m 2198.47,937.719 c -8.28,-3.789 -16.43,-5.688 -24.46,-5.688 -14.72,0 -22.1,7.778 -22.1,23.348 v 50.441 h -15.83 v 10.68 h 15.83 v 22.58 h 12.04 v -22.58 h 28.03 v -10.68 h -28.03 v -47.199 c 0,-5.012 1.11,-8.902 3.33,-11.672 2.2,-2.769 5.22,-4.16 9.03,-4.16 6.75,0 13.44,1.5 20.03,4.5 l 2.13,-9.57"
             inkscape:connector-curvature="0" /><path
             id="path257"
             style="fill:#11100e;fill-opacity:1;fill-rule:nonzero;stroke:none"
             d="m 2275.86,984.922 c 0,6.437 -2,11.848 -6.01,16.268 -4.01,4.4 -8.48,6.61 -13.46,6.61 -6.39,0 -11.68,-2.11 -15.87,-6.35 -4.2,-4.22 -6.55,-9.731 -7.01,-16.528 z m 13.47,-10.063 h -56.61 c 0,-9.347 2.7,-17.039 8.11,-23.121 5.42,-6.078 12.06,-9.109 19.92,-9.109 7.5,0 15.24,1.351 23.2,4.019 l 2.14,-9.886 c -7.3,-3.274 -15.79,-4.903 -25.5,-4.903 -12.25,0 -22.12,3.942 -29.61,11.789 -7.5,7.883 -11.24,18.481 -11.24,31.832 0,13.11 3.37,23.532 10.09,31.31 6.73,7.8 15.42,11.7 26.09,11.7 9.5,0 17.44,-3.62 23.84,-10.86 6.38,-7.22 9.57,-16.86 9.57,-28.9 v -3.871"
             inkscape:connector-curvature="0" /><path
             id="path259"
             style="fill:#11100e;fill-opacity:1;fill-rule:nonzero;stroke:none"
             d="m 2363.4,959.262 v 34.269 c -5.9,9.519 -13.03,14.269 -21.38,14.269 -6.81,0 -12.19,-3.02 -16.15,-9.07 -3.95,-6.039 -5.94,-13.679 -5.94,-22.929 0,-9.5 1.86,-17.34 5.58,-23.539 3.72,-6.223 8.83,-9.321 15.32,-9.321 3.12,0 6.25,0.84 9.42,2.539 3.18,1.68 6.16,4.219 8.95,7.598 2.8,3.383 4.2,5.442 4.2,6.184 z m 12.36,-25.274 h -12.36 v 11.891 c -2.53,-4.07 -6.16,-7.418 -10.89,-10.059 -4.73,-2.64 -9.69,-3.961 -14.91,-3.961 -9.46,0 -16.94,4.211 -22.42,12.629 -5.49,8.41 -8.25,19.09 -8.25,32.043 0,12.078 2.88,22.078 8.6,30.049 5.73,7.93 13.33,11.91 22.77,11.91 10.39,0 18.77,-4.23 25.1,-12.67 v 39.91 h 12.36 V 933.988"
             inkscape:connector-curvature="0" /></g></g><g
         aria-label="Central Texas Chapter"
         transform="matrix(0.98331894,0,0,-0.98331894,63.41213,52.742878)"
         style="font-style:normal;font-variant:normal;font-weight:normal;font-stretch:normal;font-size:641.79425049px;line-height:1.25;font-family:'Andale Mono';-inkscape-font-specification:'Andale Mono, Normal';font-variant-ligatures:normal;font-variant-caps:normal;font-variant-numeric:normal;font-feature-settings:normal;text-align:start;letter-spacing:0px;word-spacing:0px;writing-mode:lr-tb;text-anchor:start;fill:#11100e;fill-opacity:1;stroke:none;stroke-width:1.5;stroke-miterlimit:4;stroke-dasharray:none;stroke-opacity:1"
         id="text343"><path
           d="m -4.9212867,278.36352 q -52.0204323,36.03825 -120.6497933,36.03825 -85.86506,0 -130.67784,-58.91471 -44.4994,-58.91471 -44.4994,-170.476597 0,-107.801378 43.2459,-168.596341 43.2459,-61.108342 131.93134,-61.108342 31.964357,0 63.301967,8.14778 31.33761,8.14778 50.453552,21.62295 l -16.922309,40.425519 q -44.18603,-25.070088 -96.83321,-25.070088 -61.10834,0 -90.87907,44.499406 -29.77073,44.18603 -29.77073,140.079116 0,184.265147 120.6498,184.265147 51.080299,0 104.667612,-31.33761 z"
           style="font-style:normal;font-variant:normal;font-weight:normal;font-stretch:normal;font-size:641.79425049px;font-family:'Andale Mono';-inkscape-font-specification:'Andale Mono, Normal';font-variant-ligatures:normal;font-variant-caps:normal;font-variant-numeric:normal;font-feature-settings:normal;text-align:start;writing-mode:lr-tb;text-anchor:start;fill:#11100e;stroke:none;stroke-width:1.5;stroke-miterlimit:4;stroke-dasharray:none;stroke-opacity:1"
           id="path1058"
           inkscape:connector-curvature="0" /><path
           d="M 373.01028,144.23855 H 148.94636 q 0,55.46757 31.96437,91.50582 32.27773,36.03825 78.97077,36.03825 44.49941,0 91.8192,-15.98218 l 8.46116,39.17201 q -43.24591,19.42932 -100.90711,19.42932 -72.70325,0 -117.20266,-46.69304 -44.499406,-46.69304 -44.499406,-125.97719 0,-77.717276 39.798766,-123.783562 40.11214,-46.379663 103.41411,-46.379663 56.4077,0 94.32621,42.932526 37.91851,42.932525 37.91851,114.382279 z m -53.27394,-39.79877 q 0,-38.231883 -23.81659,-64.242099 -23.81658,-26.323592 -53.27393,-26.323592 -37.91851,0 -62.9886,25.070088 -24.75671,25.070087 -27.57709,65.495603 z"
           style="font-style:normal;font-variant:normal;font-weight:normal;font-stretch:normal;font-size:641.79425049px;font-family:'Andale Mono';-inkscape-font-specification:'Andale Mono, Normal';font-variant-ligatures:normal;font-variant-caps:normal;font-variant-numeric:normal;font-feature-settings:normal;text-align:start;writing-mode:lr-tb;text-anchor:start;fill:#11100e;stroke:none;stroke-width:1.5;stroke-miterlimit:4;stroke-dasharray:none;stroke-opacity:1"
           id="path1060"
           inkscape:connector-curvature="0" /><path
           d="M 748.12145,305.94061 H 699.23478 V 96.605379 q 0,-43.559278 -14.10192,-62.988596 -13.78855,-19.742694 -43.55928,-19.742694 -44.81278,0 -96.20646,55.780945 V 305.94061 H 496.48044 V -20.597282 h 48.88668 v 47.946543 q 52.64718,-55.780946 110.93514,-55.780946 91.81919,0 91.81919,110.935139 z"
           style="font-style:normal;font-variant:normal;font-weight:normal;font-stretch:normal;font-size:641.79425049px;font-family:'Andale Mono';-inkscape-font-specification:'Andale Mono, Normal';font-variant-ligatures:normal;font-variant-caps:normal;font-variant-numeric:normal;font-feature-settings:normal;text-align:start;writing-mode:lr-tb;text-anchor:start;fill:#11100e;stroke:none;stroke-width:1.5;stroke-miterlimit:4;stroke-dasharray:none;stroke-opacity:1"
           id="path1062"
           inkscape:connector-curvature="0" /><path
           d="m 1136.0811,291.21194 q -49.2001,22.56308 -96.8332,22.56308 -87.43197,0 -87.43197,-92.44595 V 21.708491 h -62.67522 v -42.305773 h 62.67522 v -89.312188 h 47.63317 v 89.312188 h 110.9351 V 21.708491 H 999.4491 V 208.48065 q 0,29.77073 13.1618,46.37966 13.1618,16.29556 35.7249,16.29556 40.1121,0 79.2841,-17.86244 z"
           style="font-style:normal;font-variant:normal;font-weight:normal;font-stretch:normal;font-size:641.79425049px;font-family:'Andale Mono';-inkscape-font-specification:'Andale Mono, Normal';font-variant-ligatures:normal;font-variant-caps:normal;font-variant-numeric:normal;font-feature-settings:normal;text-align:start;writing-mode:lr-tb;text-anchor:start;fill:#11100e;stroke:none;stroke-width:1.5;stroke-miterlimit:4;stroke-dasharray:none;stroke-opacity:1"
           id="path1064"
           inkscape:connector-curvature="0" /><path
           d="m 1522.7871,-11.822751 -19.7427,47.006414 q -32.2777,-14.101924 -55.7809,-14.101924 -21.6229,0 -42.3058,12.535044 -20.6828,12.221668 -38.2319,35.411499 -17.2356,22.876455 -17.2356,25.69684 V 305.94061 h -48.5733 V -20.597282 h 48.5733 v 66.122357 q 39.172,-73.95676 101.5338,-73.95676 36.9784,0 71.7631,16.608934 z"
           style="font-style:normal;font-variant:normal;font-weight:normal;font-stretch:normal;font-size:641.79425049px;font-family:'Andale Mono';-inkscape-font-specification:'Andale Mono, Normal';font-variant-ligatures:normal;font-variant-caps:normal;font-variant-numeric:normal;font-feature-settings:normal;text-align:start;writing-mode:lr-tb;text-anchor:start;fill:#11100e;stroke:none;stroke-width:1.5;stroke-miterlimit:4;stroke-dasharray:none;stroke-opacity:1"
           id="path1066"
           inkscape:connector-curvature="0" /><path
           d="m 1910.7467,305.94061 h -48.5733 q -5.9541,-19.74269 -5.9541,-52.64718 -41.6791,61.10834 -113.4422,61.10834 -36.3516,0 -64.2421,-25.69684 -27.5771,-26.01022 -27.5771,-66.74911 0,-24.12996 9.7147,-42.61915 9.7146,-18.48919 28.5172,-31.02423 18.8026,-12.84842 45.7529,-20.05608 26.9504,-7.52102 63.9287,-10.34141 l 54.8409,-4.38726 V 97.858883 q 0,-83.984794 -78.3441,-83.984794 -18.4892,0 -47.0064,8.147778 -28.2038,7.834403 -48.5733,18.802566 L 1666.9401,5.7263101 q 66.7491,-34.1579951 124.0969,-34.1579951 111.5619,0 111.5619,118.14279 V 230.1036 q 0,42.61915 8.1478,75.83701 z m -57.0344,-96.83321 v -59.22808 q -66.1224,5.95414 -90.8791,11.28154 -24.4433,5.01401 -42.6192,19.11594 -17.8624,14.10192 -17.8624,38.23188 0,21.93633 15.3554,35.4115 15.3555,13.47517 39.172,13.47517 26.0103,0 51.7071,-15.35543 25.6968,-15.6688 45.1262,-42.93252 z"
           style="font-style:normal;font-variant:normal;font-weight:normal;font-stretch:normal;font-size:641.79425049px;font-family:'Andale Mono';-inkscape-font-specification:'Andale Mono, Normal';font-variant-ligatures:normal;font-variant-caps:normal;font-variant-numeric:normal;font-feature-settings:normal;text-align:start;writing-mode:lr-tb;text-anchor:start;fill:#11100e;stroke:none;stroke-width:1.5;stroke-miterlimit:4;stroke-dasharray:none;stroke-opacity:1"
           id="path1068"
           inkscape:connector-curvature="0" /><path
           d="M 2263.6083,305.94061 H 2130.1101 V -93.927289 h -85.2383 v -42.305771 h 134.1249 v 399.8679 h 84.6116 z"
           style="font-style:normal;font-variant:normal;font-weight:normal;font-stretch:normal;font-size:641.79425049px;font-family:'Andale Mono';-inkscape-font-specification:'Andale Mono, Normal';font-variant-ligatures:normal;font-variant-caps:normal;font-variant-numeric:normal;font-feature-settings:normal;text-align:start;writing-mode:lr-tb;text-anchor:start;fill:#11100e;stroke:none;stroke-width:1.5;stroke-miterlimit:4;stroke-dasharray:none;stroke-opacity:1"
           id="path1070"
           inkscape:connector-curvature="0" /><path
           d="M 3093.1147,-94.554042 H 2956.7961 V 305.94061 h -51.0803 V -94.554042 h -136.9453 v -41.679018 h 324.3442 z"
           style="font-style:normal;font-variant:normal;font-weight:normal;font-stretch:normal;font-size:641.79425049px;font-family:'Andale Mono';-inkscape-font-specification:'Andale Mono, Normal';font-variant-ligatures:normal;font-variant-caps:normal;font-variant-numeric:normal;font-feature-settings:normal;text-align:start;writing-mode:lr-tb;text-anchor:start;fill:#11100e;stroke:none;stroke-width:1.5;stroke-miterlimit:4;stroke-dasharray:none;stroke-opacity:1"
           id="path1072"
           inkscape:connector-curvature="0" /><path
           d="m 3451.6171,144.23855 h -224.064 q 0,55.46757 31.9644,91.50582 32.2777,36.03825 78.9708,36.03825 44.4994,0 91.8192,-15.98218 l 8.4611,39.17201 q -43.2459,19.42932 -100.9071,19.42932 -72.7032,0 -117.2026,-46.69304 -44.4994,-46.69304 -44.4994,-125.97719 0,-77.717276 39.7987,-123.783562 40.1122,-46.379663 103.4141,-46.379663 56.4077,0 94.3262,42.932526 37.9186,42.932525 37.9186,114.382279 z m -53.274,-39.79877 q 0,-38.231883 -23.8166,-64.242099 -23.8165,-26.323592 -53.2739,-26.323592 -37.9185,0 -62.9886,25.070088 -24.7567,25.070087 -27.5771,65.495603 z"
           style="font-style:normal;font-variant:normal;font-weight:normal;font-stretch:normal;font-size:641.79425049px;font-family:'Andale Mono';-inkscape-font-specification:'Andale Mono, Normal';font-variant-ligatures:normal;font-variant-caps:normal;font-variant-numeric:normal;font-feature-settings:normal;text-align:start;writing-mode:lr-tb;text-anchor:start;fill:#11100e;stroke:none;stroke-width:1.5;stroke-miterlimit:4;stroke-dasharray:none;stroke-opacity:1"
           id="path1074"
           inkscape:connector-curvature="0" /><path
           d="m 3838.323,305.94061 h -55.1542 l -87.4319,-127.85745 -90.5657,127.85745 h -52.0205 L 3669.4133,142.35829 3553.1507,-20.597282 h 56.0944 l 87.7453,126.917322 89.3122,-126.917322 h 52.0204 L 3722.6872,140.47803 Z"
           style="font-style:normal;font-variant:normal;font-weight:normal;font-stretch:normal;font-size:641.79425049px;font-family:'Andale Mono';-inkscape-font-specification:'Andale Mono, Normal';font-variant-ligatures:normal;font-variant-caps:normal;font-variant-numeric:normal;font-feature-settings:normal;text-align:start;writing-mode:lr-tb;text-anchor:start;fill:#11100e;stroke:none;stroke-width:1.5;stroke-miterlimit:4;stroke-dasharray:none;stroke-opacity:1"
           id="path1076"
           inkscape:connector-curvature="0" /><path
           d="m 4219.7015,305.94061 h -48.5733 q -5.9541,-19.74269 -5.9541,-52.64718 -41.679,61.10834 -113.4421,61.10834 -36.3517,0 -64.2421,-25.69684 -27.5771,-26.01022 -27.5771,-66.74911 0,-24.12996 9.7146,-42.61915 9.7147,-18.48919 28.5172,-31.02423 18.8026,-12.84842 45.753,-20.05608 26.9503,-7.52102 63.9287,-10.34141 l 54.8408,-4.38726 V 97.858883 q 0,-83.984794 -78.344,-83.984794 -18.4892,0 -47.0064,8.147778 -28.2039,7.834403 -48.5733,18.802566 L 3975.8949,5.7263101 q 66.7491,-34.1579951 124.097,-34.1579951 111.5619,0 111.5619,118.14279 V 230.1036 q 0,42.61915 8.1477,75.83701 z m -57.0344,-96.83321 v -59.22808 q -66.1224,5.95414 -90.8791,11.28154 -24.4433,5.01401 -42.6191,19.11594 -17.8625,14.10192 -17.8625,38.23188 0,21.93633 15.3555,35.4115 15.3554,13.47517 39.172,13.47517 26.0102,0 51.707,-15.35543 25.6969,-15.6688 45.1262,-42.93252 z"
           style="font-style:normal;font-variant:normal;font-weight:normal;font-stretch:normal;font-size:641.79425049px;font-family:'Andale Mono';-inkscape-font-specification:'Andale Mono, Normal';font-variant-ligatures:normal;font-variant-caps:normal;font-variant-numeric:normal;font-feature-settings:normal;text-align:start;writing-mode:lr-tb;text-anchor:start;fill:#11100e;stroke:none;stroke-width:1.5;stroke-miterlimit:4;stroke-dasharray:none;stroke-opacity:1"
           id="path1078"
           inkscape:connector-curvature="0" /><path
           d="m 4562.2219,26.095757 q -41.0522,-13.475173 -77.4039,-13.475173 -39.7987,0 -62.9886,13.475173 -23.1898,13.161796 -23.1898,35.411499 0,14.101924 10.6548,24.756711 10.6548,10.341412 42.6192,19.429323 l 46.693,13.47517 q 32.2777,9.0879 52.6472,21.93632 20.3694,12.53505 30.3975,30.71086 10.3414,17.86244 10.3414,41.67902 0,46.69304 -39.172,73.95676 -39.1721,26.95035 -99.6536,26.95035 -60.1683,0 -99.3403,-18.17582 l 9.4013,-42.30577 q 41.0523,19.42932 88.0587,19.42932 40.7389,0 66.1224,-15.04205 25.6968,-15.35543 25.6968,-40.42552 0,-16.92231 -12.8484,-30.08411 -12.5351,-13.47517 -59.5415,-27.89047 -37.9185,-11.59491 -55.7809,-17.23568 -17.8625,-5.95415 -33.2179,-17.23569 -15.3554,-11.28154 -23.5032,-26.950345 -7.8344,-15.668805 -7.8344,-35.098123 0,-42.305773 36.9784,-67.0624849 36.9784,-24.7567121 98.0867,-24.7567121 39.4854,0 87.7453,13.475173 z"
           style="font-style:normal;font-variant:normal;font-weight:normal;font-stretch:normal;font-size:641.79425049px;font-family:'Andale Mono';-inkscape-font-specification:'Andale Mono, Normal';font-variant-ligatures:normal;font-variant-caps:normal;font-variant-numeric:normal;font-feature-settings:normal;text-align:start;writing-mode:lr-tb;text-anchor:start;fill:#11100e;stroke:none;stroke-width:1.5;stroke-miterlimit:4;stroke-dasharray:none;stroke-opacity:1"
           id="path1080"
           inkscape:connector-curvature="0" /><path
           d="m 5382.6402,278.36352 q -52.0204,36.03825 -120.6498,36.03825 -85.865,0 -130.6778,-58.91471 -44.4994,-58.91471 -44.4994,-170.476597 0,-107.801378 43.2459,-168.596341 43.2459,-61.108342 131.9313,-61.108342 31.9644,0 63.302,8.14778 31.3376,8.14778 50.4536,21.62295 l -16.9223,40.425519 q -44.1861,-25.070088 -96.8333,-25.070088 -61.1083,0 -90.879,44.499406 -29.7708,44.18603 -29.7708,140.079116 0,184.265147 120.6498,184.265147 51.0803,0 104.6677,-31.33761 z"
           style="font-style:normal;font-variant:normal;font-weight:normal;font-stretch:normal;font-size:641.79425049px;font-family:'Andale Mono';-inkscape-font-specification:'Andale Mono, Normal';font-variant-ligatures:normal;font-variant-caps:normal;font-variant-numeric:normal;font-feature-settings:normal;text-align:start;writing-mode:lr-tb;text-anchor:start;fill:#11100e;stroke:none;stroke-width:1.5;stroke-miterlimit:4;stroke-dasharray:none;stroke-opacity:1"
           id="path1082"
           inkscape:connector-curvature="0" /><path
           d="m 5750.8575,305.94061 h -48.8867 V 96.605379 q 0,-43.559278 -14.1019,-62.988596 -13.7886,-19.742694 -43.5593,-19.742694 -44.8128,0 -96.2065,55.780945 V 305.94061 h -48.8866 v -442.17367 h 48.8866 V 27.349261 q 52.6472,-55.780946 110.9352,-55.780946 91.8192,0 91.8192,110.935139 z"
           style="font-style:normal;font-variant:normal;font-weight:normal;font-stretch:normal;font-size:641.79425049px;font-family:'Andale Mono';-inkscape-font-specification:'Andale Mono, Normal';font-variant-ligatures:normal;font-variant-caps:normal;font-variant-numeric:normal;font-feature-settings:normal;text-align:start;writing-mode:lr-tb;text-anchor:start;fill:#11100e;stroke:none;stroke-width:1.5;stroke-miterlimit:4;stroke-dasharray:none;stroke-opacity:1"
           id="path1084"
           inkscape:connector-curvature="0" /><path
           d="m 6143.8309,305.94061 h -48.5733 q -5.9541,-19.74269 -5.9541,-52.64718 -41.679,61.10834 -113.4422,61.10834 -36.3516,0 -64.2421,-25.69684 -27.577,-26.01022 -27.577,-66.74911 0,-24.12996 9.7146,-42.61915 9.7147,-18.48919 28.5172,-31.02423 18.8026,-12.84842 45.7529,-20.05608 26.9504,-7.52102 63.9288,-10.34141 l 54.8408,-4.38726 V 97.858883 q 0,-83.984794 -78.344,-83.984794 -18.4892,0 -47.0065,8.147778 -28.2038,7.834403 -48.5732,18.802566 L 5900.0243,5.7263101 q 66.7491,-34.1579951 124.097,-34.1579951 111.5619,0 111.5619,118.14279 V 230.1036 q 0,42.61915 8.1477,75.83701 z m -57.0344,-96.83321 v -59.22808 q -66.1224,5.95414 -90.8791,11.28154 -24.4433,5.01401 -42.6191,19.11594 -17.8625,14.10192 -17.8625,38.23188 0,21.93633 15.3555,35.4115 15.3554,13.47517 39.172,13.47517 26.0102,0 51.707,-15.35543 25.6969,-15.6688 45.1262,-42.93252 z"
           style="font-style:normal;font-variant:normal;font-weight:normal;font-stretch:normal;font-size:641.79425049px;font-family:'Andale Mono';-inkscape-font-specification:'Andale Mono, Normal';font-variant-ligatures:normal;font-variant-caps:normal;font-variant-numeric:normal;font-feature-settings:normal;text-align:start;writing-mode:lr-tb;text-anchor:start;fill:#11100e;stroke:none;stroke-width:1.5;stroke-miterlimit:4;stroke-dasharray:none;stroke-opacity:1"
           id="path1086"
           inkscape:connector-curvature="0" /><path
           d="m 6317.7545,21.708491 q 16.2956,-22.563079 43.8727,-36.351627 27.8904,-13.788549 58.6013,-13.788549 56.4077,0 88.3721,46.693039 32.2777,46.379663 32.2777,120.963176 0,75.21026 -33.8446,125.35044 -33.5313,49.8268 -90.5657,49.8268 -30.3975,0 -57.0345,-15.04206 -26.3236,-15.35542 -41.679,-40.42551 v 176.11737 h -48.8867 V -20.597282 h 48.8867 z m 0,48.573295 V 205.97364 q 13.7886,27.57709 37.2918,46.06628 23.5032,18.48919 48.5733,18.48919 39.4853,0 62.6752,-36.97838 23.5032,-36.97838 23.5032,-91.81919 0,-56.407701 -22.2497,-92.132576 -22.2497,-35.724875 -62.0485,-35.724875 -51.707,0 -87.7453,56.407697 z"
           style="font-style:normal;font-variant:normal;font-weight:normal;font-stretch:normal;font-size:641.79425049px;font-family:'Andale Mono';-inkscape-font-specification:'Andale Mono, Normal';font-variant-ligatures:normal;font-variant-caps:normal;font-variant-numeric:normal;font-feature-settings:normal;text-align:start;writing-mode:lr-tb;text-anchor:start;fill:#11100e;stroke:none;stroke-width:1.5;stroke-miterlimit:4;stroke-dasharray:none;stroke-opacity:1"
           id="path1088"
           inkscape:connector-curvature="0" /><path
           d="m 6908.4688,291.21194 q -49.2001,22.56308 -96.8332,22.56308 -87.432,0 -87.432,-92.44595 V 21.708491 h -62.6752 v -42.305773 h 62.6752 v -89.312188 h 47.6332 v 89.312188 h 110.9351 V 21.708491 H 6771.8368 V 208.48065 q 0,29.77073 13.1618,46.37966 13.1618,16.29556 35.7249,16.29556 40.1121,0 79.2841,-17.86244 z"
           style="font-style:normal;font-variant:normal;font-weight:normal;font-stretch:normal;font-size:641.79425049px;font-family:'Andale Mono';-inkscape-font-specification:'Andale Mono, Normal';font-variant-ligatures:normal;font-variant-caps:normal;font-variant-numeric:normal;font-feature-settings:normal;text-align:start;writing-mode:lr-tb;text-anchor:start;fill:#11100e;stroke:none;stroke-width:1.5;stroke-miterlimit:4;stroke-dasharray:none;stroke-opacity:1"
           id="path1090"
           inkscape:connector-curvature="0" /><path
           d="m 7299.8754,144.23855 h -224.064 q 0,55.46757 31.9644,91.50582 32.2777,36.03825 78.9708,36.03825 44.4994,0 91.8192,-15.98218 l 8.4611,39.17201 q -43.2459,19.42932 -100.9071,19.42932 -72.7032,0 -117.2026,-46.69304 -44.4994,-46.69304 -44.4994,-125.97719 0,-77.717276 39.7987,-123.783562 40.1122,-46.379663 103.4141,-46.379663 56.4077,0 94.3262,42.932526 37.9186,42.932525 37.9186,114.382279 z m -53.274,-39.79877 q 0,-38.231883 -23.8166,-64.242099 -23.8165,-26.323592 -53.2739,-26.323592 -37.9185,0 -62.9886,25.070088 -24.7567,25.070087 -27.5771,65.495603 z"
           style="font-style:normal;font-variant:normal;font-weight:normal;font-stretch:normal;font-size:641.79425049px;font-family:'Andale Mono';-inkscape-font-specification:'Andale Mono, Normal';font-variant-ligatures:normal;font-variant-caps:normal;font-variant-numeric:normal;font-feature-settings:normal;text-align:start;writing-mode:lr-tb;text-anchor:start;fill:#11100e;stroke:none;stroke-width:1.5;stroke-miterlimit:4;stroke-dasharray:none;stroke-opacity:1"
           id="path1092"
           inkscape:connector-curvature="0" /><path
           d="m 7680.0004,-11.822751 -19.7427,47.006414 q -32.2777,-14.101924 -55.7809,-14.101924 -21.623,0 -42.3058,12.535044 -20.6828,12.221668 -38.2319,35.411499 -17.2357,22.876455 -17.2357,25.69684 V 305.94061 h -48.5733 V -20.597282 h 48.5733 v 66.122357 q 39.172,-73.95676 101.5339,-73.95676 36.9784,0 71.7631,16.608934 z"
           style="font-style:normal;font-variant:normal;font-weight:normal;font-stretch:normal;font-size:641.79425049px;font-family:'Andale Mono';-inkscape-font-specification:'Andale Mono, Normal';font-variant-ligatures:normal;font-variant-caps:normal;font-variant-numeric:normal;font-feature-settings:normal;text-align:start;writing-mode:lr-tb;text-anchor:start;fill:#11100e;stroke:none;stroke-width:1.5;stroke-miterlimit:4;stroke-dasharray:none;stroke-opacity:1"
           id="path1094"
           inkscape:connector-curvature="0" /></g></g></g></svg>