<?xml version="1.0" encoding="UTF-8" standalone="no"?>
<!-- Created with Inkscape (http://www.inkscape.org/) -->

<svg
   xmlns:dc="http://purl.org/dc/elements/1.1/"
   xmlns:cc="http://creativecommons.org/ns#"
   xmlns:rdf="http://www.w3.org/1999/02/22-rdf-syntax-ns#"
   xmlns:svg="http://www.w3.org/2000/svg"
   xmlns="http://www.w3.org/2000/svg"
   xmlns:xlink="http://www.w3.org/1999/xlink"
   xmlns:sodipodi="http://sodipodi.sourceforge.net/DTD/sodipodi-0.dtd"
   xmlns:inkscape="http://www.inkscape.org/namespaces/inkscape"
   version="1.1"
   id="svg2"
   xml:space="preserve"
   width="1147.59"
   height="593.85876"
   viewBox="0 0 1147.5899 593.85876"
   sodipodi:docname="GALT-CENTEX_square_center_logo.svg"
   inkscape:version="0.92.2 (5c3e80d, 2017-08-06)"
   inkscape:export-filename="/home/ellie/Pictures/GALT-CENTEX_square_center_logo.png"
   inkscape:export-xdpi="96"
   inkscape:export-ydpi="96"><metadata
     id="metadata8"><rdf:RDF><cc:Work
         rdf:about=""><dc:format>image/svg+xml</dc:format><dc:type
           rdf:resource="http://purl.org/dc/dcmitype/StillImage" /><dc:title></dc:title></cc:Work></rdf:RDF></metadata><defs
     id="defs6"><linearGradient
       inkscape:collect="always"
       id="linearGradient2374"><stop
         style="stop-color:#2857af;stop-opacity:1;"
         offset="0"
         id="stop2370" /><stop
         style="stop-color:#2857af;stop-opacity:0;"
         offset="1"
         id="stop2372" /></linearGradient><linearGradient
       inkscape:collect="always"
       id="linearGradient2366"><stop
         style="stop-color:#ffffff;stop-opacity:1;"
         offset="0"
         id="stop2362" /><stop
         style="stop-color:#ffffff;stop-opacity:0;"
         offset="1"
         id="stop2364" /></linearGradient><linearGradient
       inkscape:collect="always"
       xlink:href="#linearGradient2366"
       id="linearGradient2368"
       x1="2805.7529"
       y1="-1469.1971"
       x2="3441.5706"
       y2="-1469.1971"
       gradientUnits="userSpaceOnUse" /><linearGradient
       inkscape:collect="always"
       xlink:href="#linearGradient2374"
       id="linearGradient2376"
       x1="2861.9138"
       y1="-1468.9449"
       x2="3506.0637"
       y2="-1468.9449"
       gradientUnits="userSpaceOnUse" /></defs><sodipodi:namedview
     pagecolor="#ffffff"
     bordercolor="#666666"
     borderopacity="1"
     objecttolerance="10"
     gridtolerance="10"
     guidetolerance="10"
     inkscape:pageopacity="1"
     inkscape:pageshadow="2"
     inkscape:window-width="1600"
     inkscape:window-height="845"
     id="namedview4"
     showgrid="false"
     inkscape:snap-bbox="true"
     inkscape:bbox-paths="true"
     inkscape:zoom="0.56283415"
     inkscape:cx="475.52175"
     inkscape:cy="280.82981"
     inkscape:window-x="0"
     inkscape:window-y="27"
     inkscape:window-maximized="1"
     inkscape:current-layer="g205"
     inkscape:measure-start="1252.15,429.967"
     inkscape:measure-end="137.696,516.582"
     inkscape:snap-to-guides="true"
     inkscape:snap-text-baseline="true"
     inkscape:bbox-nodes="true"
     inkscape:snap-bbox-edge-midpoints="true"
     inkscape:snap-bbox-midpoints="false"
     inkscape:snap-object-midpoints="true"
     inkscape:snap-global="true"
     inkscape:snap-intersection-paths="true"
     inkscape:object-paths="true"
     width="1024px"
     fit-margin-top="0"
     fit-margin-left="0"
     fit-margin-right="0"
     fit-margin-bottom="0"
     showguides="false"
     inkscape:snap-page="true" /><g
     id="g10"
     inkscape:groupmode="layer"
     inkscape:label="ink_ext_XXXXXX"
     transform="matrix(1.3333333,0,0,-1.3333333,-77.96845,191.76365)"><g
       id="g12"
       transform="matrix(0.55258794,0,0,0.55258794,-1121.2209,-1056.1801)"><g
         id="g205"
         transform="translate(0,79.150487)"><g
           transform="matrix(0.37850792,0,0,0.37983301,1177.9239,938.60705)"
           id="g4958"><path
             d="m 2979.34,3029.79 h 3212.7 V 923.738 h -3212.7 v 2106.052 0"
             style="fill:#ffffff;fill-opacity:1;fill-rule:nonzero;stroke:none"
             id="path14"
             inkscape:connector-curvature="0" /><path
             d="m 2979.34,3029.79 h 3212.7 V 923.738 h -3212.7 z"
             style="fill:none;stroke:#2857af;stroke-width:15.97229958;stroke-linecap:butt;stroke-linejoin:miter;stroke-miterlimit:3.86369991;stroke-dasharray:none;stroke-opacity:1"
             id="path16"
             inkscape:connector-curvature="0" /><path
             d="m 2979.34,3029.79 h 1080.9 V 923.738 h -1080.9 v 2106.052 0"
             style="fill:#2857af;fill-opacity:1;fill-rule:nonzero;stroke:none"
             id="path18"
             inkscape:connector-curvature="0" /><path
             d="m 4060.24,1970.34 h 2131.8 V 923.738 h -2131.8 v 1046.602 0"
             style="fill:#e51636;fill-opacity:1;fill-rule:nonzero;stroke:none"
             id="path20"
             inkscape:connector-curvature="0" /><path
             d="m 4060.24,1970.34 h 2131.8 V 923.738 h -2131.8 z"
             style="fill:none;stroke:#2857af;stroke-width:15.97229958;stroke-linecap:butt;stroke-linejoin:miter;stroke-miterlimit:3.86369991;stroke-dasharray:none;stroke-opacity:1"
             id="path22"
             inkscape:connector-curvature="0" /><path
             d="M 4142.31,989.66 3532.66,1328.88 2923,989.66 l 134.19,684.67 -510.98,474.99 692.58,83.92 293.88,632.78 293.82,-632.78 692.62,-83.94 -511.01,-474.99 134.21,-684.65 v 0"
             style="fill:#ffffff;fill-opacity:1;fill-rule:nonzero;stroke:none"
             id="path24"
             inkscape:connector-curvature="0" /><path
             d="M 4142.31,989.66 3532.66,1328.88 2923,989.66 l 134.19,684.67 -510.98,474.99 692.58,83.92 293.88,632.78 293.82,-632.78 692.62,-83.94 -511.01,-474.99 z"
             style="fill:none;stroke:#2857af;stroke-width:15.97229958;stroke-linecap:butt;stroke-linejoin:miter;stroke-miterlimit:3.86369991;stroke-dasharray:none;stroke-opacity:1"
             id="path26"
             inkscape:connector-curvature="0" /><path
             d="m 3117.6,1877.51 c 72.07,47.53 128.59,49.99 199.04,100.75 31.93,22.93 18.78,40.6 50.72,62.73 55.69,39.28 110.66,42.82 175.37,64.93 27.01,9.01 33.82,31.12 62.25,34.82 58.34,7.63 68.05,6.03 118.82,6.03 0,-5.73 29.12,-5.44 27.63,-11.55 -3.64,-15.11 -42.2,-19.06 -48.75,-32.15 11.48,-4.92 39.02,-6.85 52.13,-6.85 71.27,0 100.75,49.94 169.54,68.78 119.59,32.76 174.61,57.75 298.27,57.75 166.27,0 234.97,-44.68 411.37,-67.43 121.04,-15.61 179.69,-12.94 300.73,-26.03 109.11,-11.82 131.02,-9.07 223.6,-68.87 24.56,-15.56 48.76,-33.59 72.91,-55.76 40.12,0 120.49,-3.45 160.47,-7 63.34,-5.6 169.3,-61.46 273.94,-122.59 87.44,-51.1 114.13,-57.16 224.68,-57.16 48.34,0 79.56,21.25 106.9,24.29 61.86,-17.16 36.12,-60.59 -0.48,-59.32 -36.32,-5.55 -73.41,-21.46 -109.45,-21.46 -67.16,0 -117.2,-3.03 -173.67,15.19 -69.52,22.41 -49.1,21.26 -112.98,56.48 -49.16,27.03 -78.91,51.02 -134.22,62.54 -59.95,12.49 -96.19,24.5 -159.25,24.5 -6.54,0 -31.45,3.32 -31.45,-3.24 23.05,-56.47 55.74,-90.96 86.05,-130.28 67.18,-85.99 139.22,-127.77 248.17,-127.77 50.77,0 38.57,-3.41 89.35,-3.41 23.74,0 52.25,-65.34 71.91,-78.46 49.14,-32.75 84.56,-55.34 143,-58.59 58.79,-3.29 142.54,67.52 173.24,6.97 16.65,-32.88 -47.37,-62.7 -87.42,-75.81 -157.87,-23.67 -218.99,16.22 -330.03,94.67 -114.34,3.28 -169.82,-2.47 -278.74,-2.47 -207.2,0 -372.46,31.29 -513.33,184.45 -56.54,61.44 -64.9,108.75 -123.88,167.72 -85.19,-54.89 -139.63,-88.7 -230.54,-133.76 -135.99,-67.95 -219.11,-107.87 -370.63,-107.87 -34.4,0 -54.07,9.84 -88.45,9.84 -33.58,0 -28.68,-48.32 -54.89,-67.98 -32.75,-24.58 -92.98,-4.56 -133.73,-0.5 -202.54,20.12 -228.83,65.09 -483,48.82 -114.45,-7.31 -131.86,-14.89 -243.39,-62.08 -22.62,-9.56 -87.28,12.43 -60.4,53.53 21.8,33.38 60.94,54.67 124,66.95 104.83,20.48 160.96,30.07 267.42,30.07 91.73,0 81.36,2.98 173.1,2.98 58.14,0 170.02,13.75 170.02,71.89 0,16.39 5.64,21.28 -6.38,41.31 0,0 -32.1,17.28 -59.09,21.39 -60.54,7.43 -91.86,7.43 -158.8,-0.83 -47.97,-5.91 -132.46,-39.94 -177.85,-54.6 -72.65,-23.46 -83.93,-26.6 -177.3,-26.6 -53.25,0 -136.36,16.54 -136.36,69.76 0,7.37 9.83,13.93 9.83,21.28 v 0"
             style="fill:#100f0d;fill-opacity:1;fill-rule:nonzero;stroke:none"
             id="path28"
             inkscape:connector-curvature="0" /></g></g></g></g></svg>